# xmcd CD database file
#
# Track frame offsets:
#	150
#	23592
#	33929
#	54126
#
# Disc length: 785 seconds
#
# Revision: 3
# Processed by: cddbd v1.5.1PL0 Copyright (c) Steve Scherf et al.
# Submitted via: CDex 1.51
#
DISCID=1f030f04
DTITLE=nobodyknows+ - シアワセナラテヲタタコウ／T.R.U.E.
DYEAR=2005
DGENRE=JPop
TTITLE0=シアワセナラテヲタタコウ
TTITLE1=Theme from nobodyknows＋ pt.8
TTITLE2=T.R.U.E.
TTITLE3=ボーナストラック
EXTD=YEAR: 2005
EXTT0=
EXTT1=
EXTT2=
EXTT3=
PLAYORDER=
